<svg width="25" height="25" viewBox="0 0 25 25" fill="none" xmlns="http://www.w3.org/2000/svg">
<circle cx="12.5" cy="12.5" r="12" fill="white" stroke="#F7060A"/>
<path d="M10.868 15.14H7.22L6.548 17H5.396L8.42 8.684H9.68L12.692 17H11.54L10.868 15.14ZM10.556 14.252L9.044 10.028L7.532 14.252H10.556ZM16.6139 8.636C17.5259 8.636 18.3139 8.808 18.9779 9.152C19.6499 9.488 20.1619 9.972 20.5139 10.604C20.8739 11.236 21.0539 11.98 21.0539 12.836C21.0539 13.692 20.8739 14.436 20.5139 15.068C20.1619 15.692 19.6499 16.172 18.9779 16.508C18.3139 16.836 17.5259 17 16.6139 17H14.0099V8.636H16.6139ZM16.6139 16.1C17.6939 16.1 18.5179 15.816 19.0859 15.248C19.6539 14.672 19.9379 13.868 19.9379 12.836C19.9379 11.796 19.6499 10.984 19.0739 10.4C18.5059 9.816 17.6859 9.524 16.6139 9.524H15.1019V16.1H16.6139Z" fill="black"/>
<rect width="23.8061" height="1.21927" transform="matrix(0.797171 -0.603753 -0.603753 -0.797171 3.64258 20.0887)" fill="#FF0000"/>
</svg>
