<svg width="30" height="30" viewBox="0 0 30 30" fill="none" xmlns="http://www.w3.org/2000/svg">
<mask id="mask0_2010_7" style="mask-type:alpha" maskUnits="userSpaceOnUse" x="0" y="0" width="30" height="30">
<rect width="30" height="30" fill="#D9D9D9"/>
</mask>
<g mask="url(#mask0_2010_7)">
<rect x="1.25" y="1.25" width="27.5" height="27.5" rx="3.75" stroke="white" stroke-width="2.5"/>
<path d="M16.232 6.32L15.92 17.96H13.64L13.328 6.32H16.232ZM14.864 23.168C14.368 23.168 13.952 23 13.616 22.664C13.28 22.328 13.112 21.912 13.112 21.416C13.112 20.92 13.28 20.504 13.616 20.168C13.952 19.832 14.368 19.664 14.864 19.664C15.344 19.664 15.752 19.832 16.088 20.168C16.424 20.504 16.592 20.92 16.592 21.416C16.592 21.912 16.424 22.328 16.088 22.664C15.752 23 15.344 23.168 14.864 23.168Z" fill="white"/>
</g>
</svg>
